<svg width="132" height="41" viewBox="0 0 132 41" fill="none" xmlns="http://www.w3.org/2000/svg">
<path d="M68.3837 11.5149C68.1744 9.0688 66.4054 7.68204 63.9515 7.68204C61.3265 7.68204 59.2531 9.45402 59.2531 12.7476C59.2531 16.0267 61.2694 17.8131 63.9515 17.8131C66.8049 17.8131 68.2505 15.81 68.3837 14.1343L65.7016 14.1151C65.5684 14.9577 64.9787 15.4826 64.0086 15.4826C62.7199 15.4826 61.9733 14.5581 61.9733 12.7476C61.9733 11.0334 62.6961 10.0126 64.0276 10.0126C65.0453 10.0126 65.6255 10.6193 65.7016 11.5149H68.3837Z" fill="#1D304D"/>
<path d="M69.6213 17.6783H72.2463V10.2822H69.6213V17.6783ZM70.9338 9.5118C71.6472 9.5118 72.2273 8.96769 72.2273 8.29838C72.2273 7.62907 71.6472 7.08496 70.9338 7.08496C70.2205 7.08496 69.6403 7.62907 69.6403 8.29838C69.6403 8.96769 70.2205 9.5118 70.9338 9.5118Z" fill="#1D304D"/>
<path d="M80.9454 10.2822H78.1872L77.0078 15.1744H76.9317L75.7524 10.2822H72.9942L75.448 17.6783H78.4915L80.9454 10.2822Z" fill="#1D304D"/>
<path d="M81.692 17.6783H84.317V10.2822H81.692V17.6783ZM83.0045 9.5118C83.7178 9.5118 84.298 8.96769 84.298 8.29838C84.298 7.62907 83.7178 7.08496 83.0045 7.08496C82.2912 7.08496 81.711 7.62907 81.711 8.29838C81.711 8.96769 82.2912 9.5118 83.0045 9.5118Z" fill="#1D304D"/>
<path d="M89.1736 17.8131C91.3374 17.8131 92.6641 16.5564 92.6927 14.5966H90.2579C90.2008 15.3718 89.7871 15.7908 89.2116 15.7908C88.5221 15.7908 88.0703 15.1937 88.0703 13.9803C88.0703 12.7668 88.5221 12.1698 89.2116 12.1698C89.7918 12.1698 90.1865 12.5887 90.2579 13.3639H92.6927C92.6784 11.4379 91.3231 10.1859 89.1736 10.1859C86.7958 10.1859 85.3882 11.7268 85.3882 13.9995C85.3882 16.2723 86.7958 17.8131 89.1736 17.8131Z" fill="#1D304D"/>
<path d="M105.498 11.5149C105.289 9.0688 103.52 7.68204 101.066 7.68204C98.4409 7.68204 96.3675 9.45402 96.3675 12.7476C96.3675 16.0267 98.3838 17.8131 101.066 17.8131C103.919 17.8131 105.365 15.81 105.498 14.1343L102.816 14.1151C102.683 14.9577 102.093 15.4826 101.123 15.4826C99.8343 15.4826 99.0877 14.5581 99.0877 12.7476C99.0877 11.0334 99.8105 10.0126 101.142 10.0126C102.16 10.0126 102.74 10.6193 102.816 11.5149H105.498Z" fill="#1D304D"/>
<path d="M106.736 17.6783H109.361V10.2822H106.736V17.6783ZM108.048 9.5118C108.762 9.5118 109.342 8.96769 109.342 8.29838C109.342 7.62907 108.762 7.08496 108.048 7.08496C107.335 7.08496 106.755 7.62907 106.755 8.29838C106.755 8.96769 107.335 9.5118 108.048 9.5118Z" fill="#1D304D"/>
<path d="M115.054 10.2822H113.799V8.51025H111.174V10.2822H110.242V12.2083H111.174V15.55C111.155 17.1005 112.101 17.8854 113.913 17.7842C114.507 17.7505 114.95 17.6253 115.187 17.5531L114.807 15.6848C114.707 15.7089 114.45 15.7619 114.293 15.7619C113.951 15.7619 113.799 15.6078 113.799 15.2996V12.2083H115.054V10.2822Z" fill="#1D304D"/>
<path d="M117.723 20.4518C119.559 20.4518 120.42 19.5177 120.824 18.2946L123.487 10.2822H120.729L119.53 15.4055H119.454L118.275 10.2822H115.536L118.104 18.0057L118.047 18.1406C117.871 18.5498 117.362 18.5354 116.715 18.3043L116.144 20.1918C116.553 20.3555 117.119 20.4518 117.723 20.4518Z" fill="#1D304D"/>
<path d="M63.0385 33.7802C66.0059 33.7802 67.8891 31.9312 67.8891 28.8495C67.8891 25.7678 66.0059 23.9187 63.0004 23.9187H59.2911V33.7802H63.0385ZM61.9352 31.5074V26.1915H62.8673C64.3891 26.1915 65.226 26.7886 65.226 28.8495C65.226 30.9103 64.3891 31.5074 62.9434 31.5074H61.9352Z" fill="#1D304D"/>
<path d="M71.1859 33.8957C72.137 33.8957 72.8551 33.5683 73.2973 32.7401H73.3544V33.7802H75.8082V28.7146C75.8082 27.3471 74.529 26.2878 72.4413 26.2878C70.2585 26.2878 69.1838 27.4434 69.0934 28.7917H71.5092C71.5711 28.3342 71.904 28.1176 72.4033 28.1176C72.8598 28.1176 73.1832 28.3294 73.1832 28.7146V28.7339C73.1832 29.1624 72.7171 29.2973 71.4902 29.3888C69.9827 29.4995 68.8081 30.1158 68.8081 31.7385C68.8081 33.212 69.7877 33.8957 71.1859 33.8957ZM72.0419 32.2201C71.5948 32.2201 71.281 31.9986 71.281 31.5845C71.281 31.2041 71.5473 30.9103 72.156 30.814C72.5745 30.7466 72.9264 30.66 73.2022 30.5444V31.1607C73.2022 31.8348 72.6363 32.2201 72.0419 32.2201Z" fill="#1D304D"/>
<path d="M83.7392 28.7917C83.6727 27.2267 82.3887 26.2878 80.2772 26.2878C78.1896 26.2878 76.9008 27.1545 76.9103 28.6954C76.9008 29.8606 77.6474 30.607 79.1359 30.8718L80.4294 31.1029C81.0001 31.2089 81.2569 31.363 81.2664 31.6422C81.2569 31.9504 80.9097 32.1238 80.4294 32.1238C79.835 32.1238 79.4165 31.8637 79.3451 31.3919H76.7391C76.8818 32.9086 78.1753 33.915 80.4104 33.915C82.4315 33.915 83.9199 32.9183 83.9295 31.3341C83.9199 30.241 83.1971 29.6054 81.7039 29.331L80.2202 29.0613C79.6638 28.9602 79.5068 28.758 79.5163 28.5413C79.5068 28.2331 79.8825 28.0598 80.3343 28.0598C80.8526 28.0598 81.2854 28.339 81.3234 28.7917H83.7392Z" fill="#1D304D"/>
<path d="M87.5603 29.6199C87.5651 28.888 87.9835 28.445 88.6255 28.445C89.2961 28.445 89.6765 28.888 89.6717 29.6199V33.7802H92.2968V29.0613C92.3015 27.4434 91.2934 26.2878 89.7478 26.2878C88.6683 26.2878 87.8694 26.8464 87.5413 27.7901H87.4652V23.9187H84.9352V33.7802H87.5603V29.6199Z" fill="#1D304D"/>
<path d="M93.5546 33.7802H96.1606V32.5668H96.2177C96.5221 33.3179 97.2259 33.8765 98.2531 33.8765C99.8129 33.8765 101.125 32.6438 101.125 30.0821C101.125 27.4049 99.7178 26.2878 98.2721 26.2878C97.1878 26.2878 96.503 26.9234 96.2177 27.6746H96.1797V23.9187H93.5546V33.7802ZM96.1226 30.0821C96.1226 28.9843 96.5601 28.3294 97.2829 28.3294C98.0058 28.3294 98.4243 28.9843 98.4243 30.0821C98.4243 31.18 98.0058 31.8349 97.2829 31.8349C96.5601 31.8349 96.1226 31.1607 96.1226 30.0821Z" fill="#1D304D"/>
<path d="M105.743 33.915C108.121 33.915 109.528 32.3741 109.528 30.1014C109.528 27.8286 108.121 26.2878 105.743 26.2878C103.365 26.2878 101.958 27.8286 101.958 30.1014C101.958 32.3741 103.365 33.915 105.743 33.915ZM105.762 31.9504C105.058 31.9504 104.64 31.2426 104.64 30.0821C104.64 28.9217 105.058 28.2139 105.762 28.2139C106.428 28.2139 106.846 28.9217 106.846 30.0821C106.846 31.2426 106.428 31.9504 105.762 31.9504Z" fill="#1D304D"/>
<path d="M112.629 33.8957C113.58 33.8957 114.298 33.5683 114.74 32.7401H114.798V33.7802H117.251V28.7146C117.251 27.3471 115.972 26.2878 113.884 26.2878C111.702 26.2878 110.627 27.4434 110.537 28.7917H112.952C113.014 28.3342 113.347 28.1176 113.846 28.1176C114.303 28.1176 114.626 28.3294 114.626 28.7146V28.7339C114.626 29.1624 114.16 29.2973 112.933 29.3888C111.426 29.4995 110.251 30.1158 110.251 31.7385C110.251 33.212 111.231 33.8957 112.629 33.8957ZM113.485 32.2201C113.038 32.2201 112.724 31.9986 112.724 31.5845C112.724 31.2041 112.99 30.9103 113.599 30.814C114.018 30.7466 114.37 30.66 114.645 30.5444V31.1607C114.645 31.8348 114.079 32.2201 113.485 32.2201Z" fill="#1D304D"/>
<path d="M118.506 33.7802H121.131V29.928C121.131 29.0806 121.706 28.522 122.481 28.522C122.752 28.522 123.19 28.5654 123.451 28.6568V26.3889C123.242 26.3263 123.014 26.2878 122.786 26.2878C122.006 26.2878 121.397 26.75 121.131 27.7901H121.055V26.3841H118.506V33.7802Z" fill="#1D304D"/>
<path d="M126.538 33.8765C127.565 33.8765 128.269 33.3179 128.573 32.5668H128.63V33.7802H131.236V23.9187H128.611V27.6746H128.573C128.288 26.9234 127.603 26.2878 126.519 26.2878C125.073 26.2878 123.665 27.4049 123.665 30.0821C123.665 32.6438 124.978 33.8765 126.538 33.8765ZM127.508 31.8349C126.785 31.8349 126.366 31.18 126.366 30.0821C126.366 28.9843 126.785 28.3294 127.508 28.3294C128.231 28.3294 128.668 28.9843 128.668 30.0821C128.668 31.1607 128.231 31.8349 127.508 31.8349Z" fill="#1D304D"/>
<path fill-rule="evenodd" clip-rule="evenodd" d="M21.6734 22.0866L12.2687 16.1601L12.8019 15.3141L22.2065 21.2406L21.6734 22.0866Z" fill="black"/>
<path fill-rule="evenodd" clip-rule="evenodd" d="M33.746 10.2136L28.2904 19.899L27.4191 19.4082L32.8747 9.72282L33.746 10.2136Z" fill="black"/>
<path fill-rule="evenodd" clip-rule="evenodd" d="M35.9928 32.061L27.2543 25.1901L27.8724 24.404L36.6109 31.2749L35.9928 32.061Z" fill="black"/>
<path fill-rule="evenodd" clip-rule="evenodd" d="M15.6971 34.8868L22.1198 25.8138L22.936 26.3915L16.5133 35.4646L15.6971 34.8868Z" fill="black"/>
<path d="M30.5825 22.9898C30.5825 25.8852 28.2353 28.2324 25.3399 28.2324C22.4444 28.2324 20.0972 25.8852 20.0972 22.9898C20.0972 20.0943 22.4444 17.7471 25.3399 17.7471C28.2353 17.7471 30.5825 20.0943 30.5825 22.9898Z" fill="#0066FF"/>
<path d="M40.8876 5.85675C40.8876 8.88381 38.4337 11.3377 35.4067 11.3377C32.3796 11.3377 29.9257 8.88381 29.9257 5.85675C29.9257 2.8297 32.3796 0.375793 35.4067 0.375793C38.4337 0.375793 40.8876 2.8297 40.8876 5.85675Z" fill="#0066FF"/>
<path d="M15.3312 12.0279C15.3312 16.2394 11.9171 19.6536 7.70552 19.6536C3.49397 19.6536 0.079834 16.2394 0.079834 12.0279C0.079834 7.81633 3.49397 4.40219 7.70552 4.40219C11.9171 4.40219 15.3312 7.81633 15.3312 12.0279Z" fill="#0066FF"/>
<path d="M17.2376 36.8114C17.2376 38.3907 15.9573 39.671 14.378 39.671C12.7987 39.671 11.5184 38.3907 11.5184 36.8114C11.5184 35.2321 12.7987 33.9518 14.378 33.9518C15.9573 33.9518 17.2376 35.2321 17.2376 36.8114Z" fill="#0066FF"/>
<path d="M46.7872 32.5219C46.7872 36.9967 43.1596 40.6242 38.6849 40.6242C34.2101 40.6242 30.5826 36.9967 30.5826 32.5219C30.5826 28.0472 34.2101 24.4196 38.6849 24.4196C43.1596 24.4196 46.7872 28.0472 46.7872 32.5219Z" fill="#0066FF"/>
</svg>
