<svg width="93" height="93" viewBox="0 0 93 93" fill="none" xmlns="http://www.w3.org/2000/svg">
<path d="M87.38 27.3397V62.646C87.38 64.167 86.1851 65.3619 84.6641 65.3619C83.1431 65.3619 81.9482 64.167 81.9482 62.646V27.3397C81.9482 25.8187 83.1431 24.6238 84.6641 24.6238C86.1853 24.6238 87.38 25.8187 87.38 27.3397Z" fill="#4DA6FF"/>
<path d="M92.6486 89.1168L87.2168 72.6406C86.8369 71.5541 85.7505 70.9568 84.664 70.9568C83.5776 70.9568 82.4912 71.5543 82.1113 72.6406L76.6795 89.1168C76.3532 89.9314 76.5164 90.8545 77.0055 91.5609C77.5485 92.267 78.3633 92.7018 79.2323 92.7018H90.0958C90.9648 92.7018 91.7796 92.267 92.3226 91.5609C92.8117 90.8547 92.9748 89.9314 92.6486 89.1168Z" fill="#4DA6FF"/>
<path d="M92.3229 91.5609C91.7799 92.267 90.965 92.7018 90.0961 92.7018H84.6643V70.9568C85.7507 70.9568 86.8372 71.5543 87.217 72.6406L92.6488 89.1168C92.9751 89.9314 92.812 90.8547 92.3229 91.5609Z" fill="#4596E6"/>
<path d="M87.3802 27.3397V62.646C87.3802 64.167 86.1853 65.3619 84.6643 65.3619V24.6238C86.1855 24.6238 87.3802 25.8187 87.3802 27.3397Z" fill="#4596E6"/>
<path d="M76.5164 32.7714V51.7824C76.5164 52.5429 76.1905 53.3034 75.5932 53.7921C75.1041 54.2812 62.3214 65.3617 46.4608 65.3617C30.6003 65.3617 17.8174 54.2812 17.3283 53.7921C16.7308 53.3034 16.405 52.5431 16.405 51.7824V32.7714C16.405 31.2504 17.5999 30.0555 19.1209 30.0555H73.8004C75.3216 30.0555 76.5164 31.2503 76.5164 32.7714Z" fill="#032E68"/>
<path d="M76.5168 32.7714V51.7824C76.5168 52.5429 76.1909 53.3034 75.5935 53.7921C75.1044 54.2812 62.3217 65.3617 46.4612 65.3617V30.0555H73.8009C75.3219 30.0555 76.5168 31.2503 76.5168 32.7714Z" fill="#001D56"/>
<path d="M91.2908 22.1796L47.6557 0.271607C47.2759 0.108824 46.8954 0 46.4609 0C46.0263 0 45.6459 0.108824 45.266 0.271607L1.6311 22.1796C0.707642 22.6686 0.110107 23.5917 0.110107 24.6238C0.110107 25.656 0.707642 26.5792 1.6311 27.0681L45.2661 48.795C45.646 48.9578 46.0265 49.0666 46.461 49.0666C46.8956 49.0666 47.276 48.9578 47.6559 48.795L91.291 27.0681C92.2146 26.5791 92.812 25.656 92.812 24.6238C92.8118 23.5917 92.2142 22.6686 91.2908 22.1796Z" fill="#08469C"/>
<path d="M92.8116 24.6238C92.8116 25.656 92.2141 26.5792 91.2906 27.0681L47.6556 48.795C47.2757 48.9578 46.8953 49.0666 46.4607 49.0666V0C46.8954 0 47.2757 0.108824 47.6556 0.271607L91.2906 22.1796C92.2141 22.6686 92.8116 23.5917 92.8116 24.6238Z" fill="#063E8B"/>
<path d="M46.4609 16.4762C41.9524 16.4762 38.3132 20.1154 38.3132 24.6238C38.3132 29.1323 41.9524 32.7715 46.4609 32.7715C50.9694 32.7715 54.6085 29.1323 54.6085 24.6238C54.6085 20.1154 50.9694 16.4762 46.4609 16.4762Z" fill="#032E68"/>
<path d="M54.6083 24.6238C54.6083 29.1323 50.9692 32.7715 46.4607 32.7715V16.4762C50.9694 16.4762 54.6083 20.1155 54.6083 24.6238Z" fill="#001D56"/>
<path d="M84.664 59.9302C80.1555 59.9302 76.5164 63.5693 76.5164 68.0778C76.5164 72.5863 80.1555 76.2255 84.664 76.2255C89.1725 76.2255 92.8117 72.5863 92.8117 68.0778C92.8117 63.5693 89.1725 59.9302 84.664 59.9302Z" fill="#54CCFF"/>
<path d="M92.812 68.0779C92.812 72.5864 89.1728 76.2255 84.6643 76.2255V59.9304C89.1728 59.9302 92.812 63.5694 92.812 68.0779Z" fill="#4BB8E6"/>
</svg>
