<svg width="158" height="158" viewBox="0 0 158 158" fill="none" xmlns="http://www.w3.org/2000/svg">
<path d="M158 79C158 122.63 122.63 158 79 158C35.3695 158 0 122.63 0 79C0 35.3695 35.3695 0 79 0C122.63 0 158 35.3695 158 79ZM35.1542 79C35.1542 103.215 54.7846 122.846 79 122.846C103.215 122.846 122.846 103.215 122.846 79C122.846 54.7846 103.215 35.1542 79 35.1542C54.7846 35.1542 35.1542 54.7846 35.1542 79Z" fill="#F4F4F4"/>
<path d="M79 0C96.1048 2.03972e-07 112.747 5.55151 126.427 15.8202C140.106 26.0889 150.083 40.52 154.859 56.9446C159.634 73.3693 158.95 90.9001 152.908 106.902C146.867 122.905 135.795 136.514 121.357 145.685L102.508 116.011C110.522 110.921 116.667 103.368 120.02 94.4862C123.373 85.6047 123.753 75.8749 121.102 66.759C118.452 57.6432 112.915 49.6338 105.322 43.9346C97.7302 38.2353 88.4933 35.1542 79 35.1542V0Z" fill="url(#paint0_angular)"/>
<path d="M65.7602 70.0909H62.0024L57.3213 73.0547V76.6001L61.6515 73.8857H61.7623V89H65.7602V70.0909ZM70.2544 89H83.7345V85.7315H75.7941V85.6023L78.5548 82.897C82.4419 79.3516 83.4852 77.5788 83.4852 75.4276C83.4852 72.1499 80.8076 69.8324 76.7544 69.8324C72.7842 69.8324 70.0605 72.2053 70.0697 75.9169H73.8644C73.8552 74.1072 75.0001 72.9993 76.7267 72.9993C78.3886 72.9993 79.6258 74.0334 79.6258 75.6953C79.6258 77.2003 78.7025 78.2344 76.9852 79.8871L70.2544 86.1193V89ZM94.0454 89.4155C98.8003 89.4155 101.672 85.7962 101.681 79.5639C101.69 73.3778 98.7819 69.8324 94.0454 69.8324C89.2996 69.8324 86.4189 73.3686 86.4097 79.5639C86.3912 85.7777 89.2812 89.4062 94.0454 89.4155ZM94.0454 86.1009C91.8756 86.1009 90.4722 83.9219 90.4814 79.5639C90.4907 75.2706 91.8849 73.1101 94.0454 73.1101C96.1966 73.1101 97.6001 75.2706 97.6001 79.5639C97.6093 83.9219 96.2059 86.1009 94.0454 86.1009Z" fill="#05A068"/>
<defs>
<radialGradient id="paint0_angular" cx="0" cy="0" r="1" gradientUnits="userSpaceOnUse" gradientTransform="translate(79 79) rotate(-90) scale(79)">
<stop stop-color="#00FFA3"/>
<stop offset="1" stop-color="#C4C4C4" stop-opacity="0"/>
</radialGradient>
</defs>
</svg>
