<svg width="158" height="158" viewBox="0 0 158 158" fill="none" xmlns="http://www.w3.org/2000/svg">
<path d="M158 79C158 122.63 122.63 158 79 158C35.3695 158 0 122.63 0 79C0 35.3695 35.3695 0 79 0C122.63 0 158 35.3695 158 79ZM35.1542 79C35.1542 103.215 54.7846 122.846 79 122.846C103.215 122.846 122.846 103.215 122.846 79C122.846 54.7846 103.215 35.1542 79 35.1542C54.7846 35.1542 35.1542 54.7846 35.1542 79Z" fill="#F4F4F4"/>
<path d="M79 0C96.9235 2.13736e-07 114.314 6.0949 128.316 17.2838C142.319 28.4727 152.1 44.0905 156.054 61.5725C160.008 79.0545 157.899 97.3613 150.075 113.487C142.251 129.612 129.175 142.598 112.996 150.311C96.8173 158.024 78.4963 160.006 61.042 155.932C43.5877 151.858 28.0377 141.969 16.9455 127.89C5.85333 113.811 -0.12161 96.3788 0.00187493 78.4557C0.12536 60.5326 6.33993 43.1843 17.6251 29.2595L44.9363 51.3935C38.6729 59.1219 35.2238 68.7504 35.1552 78.6979C35.0867 88.6454 38.4029 98.3206 44.5591 106.135C50.7154 113.948 59.3458 119.437 69.0331 121.698C78.7205 123.959 88.8888 122.859 97.8683 118.578C106.848 114.297 114.105 107.09 118.447 98.1405C122.79 89.1907 123.96 79.0302 121.766 69.3276C119.571 59.6249 114.142 50.9569 106.371 44.7469C98.5998 38.5369 88.9477 35.1542 79 35.1542V0Z" fill="url(#paint0_angular)"/>
<path d="M61.814 89.2585C66.0612 89.2585 69.0988 86.9226 69.0896 83.6911C69.0988 81.3366 67.6031 79.6562 64.824 79.3054V79.1577C66.9383 78.7791 68.3971 77.2834 68.3879 75.1598C68.3971 72.1776 65.7842 69.8324 61.8694 69.8324C57.9916 69.8324 55.074 72.1037 55.0186 75.3722H58.8502C58.8964 73.9318 60.2167 72.9993 61.8509 72.9993C63.4667 72.9993 64.547 73.978 64.5377 75.3999C64.547 76.8864 63.282 77.8928 61.4632 77.8928H59.6997V80.8288H61.4632C63.6052 80.8288 64.944 81.8999 64.9347 83.4233C64.944 84.9283 63.6514 85.9624 61.8232 85.9624C60.0597 85.9624 58.7394 85.0391 58.6656 83.6541H54.64C54.7046 86.9595 57.6592 89.2585 61.814 89.2585ZM71.9633 89H85.4434V85.7315H77.5031V85.6023L80.2638 82.897C84.1508 79.3516 85.1942 77.5788 85.1942 75.4276C85.1942 72.1499 82.5166 69.8324 78.4633 69.8324C74.4932 69.8324 71.7694 72.2053 71.7787 75.9169H75.5734C75.5642 74.1072 76.7091 72.9993 78.4356 72.9993C80.0976 72.9993 81.3348 74.0334 81.3348 75.6953C81.3348 77.2003 80.4115 78.2344 78.6942 79.8871L71.9633 86.1193V89ZM95.7544 89.4155C100.509 89.4155 103.381 85.7962 103.39 79.5639C103.399 73.3778 100.491 69.8324 95.7544 69.8324C91.0086 69.8324 88.1279 73.3686 88.1187 79.5639C88.1002 85.7777 90.9901 89.4062 95.7544 89.4155ZM95.7544 86.1009C93.5846 86.1009 92.1812 83.9219 92.1904 79.5639C92.1997 75.2706 93.5938 73.1101 95.7544 73.1101C97.9056 73.1101 99.309 75.2706 99.309 79.5639C99.3183 83.9219 97.9149 86.1009 95.7544 86.1009Z" fill="#0569FE"/>
<defs>
<radialGradient id="paint0_angular" cx="0" cy="0" r="1" gradientUnits="userSpaceOnUse" gradientTransform="translate(79 79) rotate(-90) scale(79)">
<stop stop-color="#0066FF"/>
<stop offset="1" stop-color="#C4C4C4" stop-opacity="0"/>
</radialGradient>
</defs>
</svg>
