<svg width="93" height="93" viewBox="0 0 93 93" fill="none" xmlns="http://www.w3.org/2000/svg">
<path d="M49.624 22.9451C47.1527 19.4956 41.6894 17.716 41.0252 17.5095C24.3313 12.3369 9.34843 30.9667 19.992 46.8281C20.548 47.6578 21.169 48.4344 21.848 49.1028C24.9679 45.9581 29.1976 44.431 32.9549 44.5449L34.0123 44.5577C33.8418 43.3722 33.6791 42.4216 33.6791 40.9221C33.6791 31.6691 40.6553 24.0153 49.624 22.9451Z" fill="#F9E14E"/>
<path d="M73.5142 76.2301H32.7739C23.7883 76.2301 16.4775 68.9201 16.4775 59.9345C16.4775 50.847 23.9382 43.527 32.9663 43.6388C31.3211 32.1422 40.2622 21.9095 51.7864 21.9095C61.4228 21.9095 69.4076 29.1163 70.6348 38.4231C82.2113 36.6591 92.5267 45.6617 92.5267 57.2184C92.5267 67.7014 83.9979 76.2301 73.5142 76.2301Z" fill="#E8EFFF"/>
<path d="M70.6354 38.4231C69.4076 29.1163 61.4228 21.9095 51.7864 21.9095V76.2301H73.5142C83.9986 76.2301 92.5267 67.7021 92.5267 57.2184C92.5267 45.6624 82.2113 36.6591 70.6354 38.4231Z" fill="#CCDFFF"/>
<path d="M28.6934 92.4367C27.3431 91.7831 26.778 90.1592 27.4316 88.8089L30.1476 83.1957C30.8012 81.8447 32.4252 81.2803 33.7754 81.9339C35.1257 82.5867 35.6908 84.2114 35.0372 85.5617L32.3212 91.1749C31.6683 92.5244 30.0444 93.0903 28.6934 92.4367Z" fill="#40B4F9"/>
<path d="M42.4546 92.4367C41.1044 91.7831 40.5392 90.1592 41.1928 88.8089L43.9088 83.1957C44.5617 81.8447 46.1864 81.2803 47.5366 81.9339C48.8869 82.5867 49.452 84.2114 48.7985 85.5617L46.0824 91.1749C45.4296 92.5244 43.8056 93.0903 42.4546 92.4367Z" fill="#40B4F9"/>
<path d="M56.2161 92.4367C54.8658 91.7831 54.3007 90.1592 54.9543 88.8089L57.6703 83.1957C58.3232 81.8447 59.9479 81.2803 61.2981 81.9339C62.6484 82.5867 63.2128 84.2114 62.5599 85.5617L59.8439 91.1749C59.191 92.5244 57.5671 93.0903 56.2161 92.4367Z" fill="#0097F1"/>
<path d="M69.9776 92.4367C68.6273 91.7831 68.0622 90.1592 68.7157 88.8089L71.4318 83.1957C72.0846 81.8447 73.7093 81.2803 75.0596 81.9339C76.4098 82.5867 76.9743 84.2114 76.3214 85.5617L73.6054 91.1749C72.9525 92.5244 71.3285 93.0903 69.9776 92.4367Z" fill="#0097F1"/>
<path d="M8.1482 38.2059H2.71607C1.21586 38.2059 0 36.9894 0 35.4899C0 33.9897 1.21586 32.7738 2.71607 32.7738H8.1482C9.6484 32.7738 10.8643 33.9897 10.8643 35.4899C10.8643 36.9894 9.6484 38.2059 8.1482 38.2059Z" fill="#FFC543"/>
<path d="M35.3088 11.0453C33.8086 11.0453 32.5928 9.82947 32.5928 8.32927V2.71607C32.5928 1.21586 33.8086 0 35.3088 0C36.8083 0 38.0249 1.21586 38.0249 2.71607V8.32927C38.0249 9.82947 36.8083 11.0453 35.3088 11.0453Z" fill="#FFC543"/>
<path d="M19.3427 13.3837L16.5361 8.52236C15.7863 7.22304 16.2312 5.56227 17.5305 4.81182C18.8299 4.06207 20.4906 4.50697 21.2404 5.8063L24.047 10.6676C24.7974 11.9662 24.3518 13.6277 23.0532 14.3775C21.7546 15.1272 20.0931 14.683 19.3427 13.3837Z" fill="#FFC543"/>
<path d="M10.396 24.3852L5.53469 21.5786C4.23536 20.8288 3.79047 19.1674 4.54021 17.8687C5.29067 16.5694 6.95143 16.1238 8.25075 16.8743L13.1121 19.6809C14.4107 20.4313 14.8556 22.0921 14.1059 23.3914C13.3554 24.6907 11.6939 25.1349 10.396 24.3852Z" fill="#FFC543"/>
<path d="M4.63079 53.4485C3.88104 52.1498 4.32594 50.4884 5.62527 49.7386L10.4866 46.932C11.7852 46.1816 13.4467 46.6272 14.1964 47.9258C14.9462 49.2251 14.5013 50.8866 13.2027 51.6363L8.34133 54.4429C7.04271 55.1927 5.38124 54.7485 4.63079 53.4485Z" fill="#FFC543"/>
<path d="M47.5884 14.2869C46.2891 13.5371 45.8442 11.8757 46.5939 10.5771L49.4005 5.71572C50.151 4.41639 51.8117 3.9715 53.1111 4.72124C54.4104 5.4717 54.8553 7.13246 54.1048 8.43179L51.2982 13.2931C50.5478 14.5924 48.8863 15.0366 47.5884 14.2869Z" fill="#FFC543"/>
<path d="M54.1056 8.4325L51.7864 12.4486V4.3584C52.2369 4.36194 52.6917 4.47935 53.1119 4.72196C54.4098 5.4717 54.8554 7.13246 54.1056 8.4325Z" fill="#FF9900"/>
</svg>
