<svg width="183" height="97" viewBox="0 0 183 97" fill="none" xmlns="http://www.w3.org/2000/svg">
<g opacity="0.21">
<rect width="183" height="97" fill="white"/>
<path d="M86.7221 42.0007C86.5518 40.0103 85.1124 38.882 83.1157 38.882C80.9798 38.882 79.2927 40.3238 79.2927 43.0037C79.2927 45.6719 80.9334 47.1255 83.1157 47.1255C85.4374 47.1255 86.6138 45.4956 86.7221 44.1321L84.5397 44.1164C84.4314 44.8021 83.9516 45.2291 83.1622 45.2291C82.1135 45.2291 81.506 44.4769 81.506 43.0037C81.506 41.6089 82.0942 40.7783 83.1777 40.7783C84.0057 40.7783 84.4778 41.2719 84.5397 42.0007H86.7221Z" fill="black"/>
<path d="M87.7291 47.0157H89.8651V40.9977H87.7291V47.0157ZM88.7971 40.3708C89.3775 40.3708 89.8496 39.9281 89.8496 39.3835C89.8496 38.8389 89.3775 38.3961 88.7971 38.3961C88.2167 38.3961 87.7446 38.8389 87.7446 39.3835C87.7446 39.9281 88.2167 40.3708 88.7971 40.3708Z" fill="black"/>
<path d="M96.9433 40.9977H94.699L93.7394 44.9784H93.6775L92.7179 40.9977H90.4736L92.4702 47.0157H94.9467L96.9433 40.9977Z" fill="black"/>
<path d="M97.5509 47.0157H99.6868V40.9977H97.5509V47.0157ZM98.6188 40.3708C99.1993 40.3708 99.6713 39.9281 99.6713 39.3835C99.6713 38.8389 99.1993 38.3961 98.6188 38.3961C98.0384 38.3961 97.5663 38.8389 97.5663 39.3835C97.5663 39.9281 98.0384 40.3708 98.6188 40.3708Z" fill="black"/>
<path d="M103.639 47.1255C105.399 47.1255 106.479 46.1028 106.502 44.5082H104.521C104.474 45.139 104.138 45.4799 103.669 45.4799C103.108 45.4799 102.741 44.9941 102.741 44.0067C102.741 43.0194 103.108 42.5335 103.669 42.5335C104.142 42.5335 104.463 42.8744 104.521 43.5052H106.502C106.49 41.938 105.388 40.9193 103.639 40.9193C101.704 40.9193 100.558 42.1731 100.558 44.0224C100.558 45.8717 101.704 47.1255 103.639 47.1255Z" fill="black"/>
<path d="M116.922 42.0007C116.751 40.0103 115.312 38.882 113.315 38.882C111.179 38.882 109.492 40.3238 109.492 43.0037C109.492 45.6719 111.133 47.1255 113.315 47.1255C115.637 47.1255 116.813 45.4956 116.922 44.1321L114.739 44.1164C114.631 44.8021 114.151 45.2291 113.362 45.2291C112.313 45.2291 111.705 44.4769 111.705 43.0037C111.705 41.6089 112.294 40.7783 113.377 40.7783C114.205 40.7783 114.677 41.2719 114.739 42.0007H116.922Z" fill="black"/>
<path d="M117.929 47.0157H120.064V40.9977H117.929V47.0157ZM118.997 40.3708C119.577 40.3708 120.049 39.9281 120.049 39.3835C120.049 38.8389 119.577 38.3961 118.997 38.3961C118.416 38.3961 117.944 38.8389 117.944 39.3835C117.944 39.9281 118.416 40.3708 118.997 40.3708Z" fill="black"/>
<path d="M124.697 40.9977H123.676V39.5558H121.54V40.9977H120.781V42.5649H121.54V45.284C121.524 46.5456 122.294 47.1842 123.769 47.1019C124.252 47.0745 124.612 46.9726 124.806 46.9139L124.496 45.3937C124.415 45.4133 124.206 45.4564 124.078 45.4564C123.8 45.4564 123.676 45.331 123.676 45.0802V42.5649H124.697V40.9977Z" fill="black"/>
<path d="M126.869 49.2725C128.363 49.2725 129.063 48.5124 129.392 47.5173L131.559 40.9977H129.314L128.339 45.1664H128.277L127.318 40.9977H125.089L127.179 47.2822L127.132 47.3919C126.989 47.7249 126.575 47.7132 126.049 47.5251L125.584 49.061C125.917 49.1942 126.378 49.2725 126.869 49.2725Z" fill="black"/>
<path d="M82.3728 60.1176C84.7874 60.1176 86.3197 58.6131 86.3197 56.1055C86.3197 53.598 84.7874 52.0935 82.3418 52.0935H79.3236V60.1176H82.3728ZM81.4751 58.2683V53.9428H82.2335C83.4717 53.9428 84.1528 54.4286 84.1528 56.1055C84.1528 57.7824 83.4717 58.2683 82.2954 58.2683H81.4751Z" fill="black"/>
<path d="M89.0022 60.2116C89.7761 60.2116 90.3604 59.9452 90.7203 59.2713H90.7667V60.1176H92.7633V55.9958C92.7633 54.8831 91.7224 54.0212 90.0237 54.0212C88.2476 54.0212 87.3731 54.9615 87.2996 56.0585H89.2653C89.3156 55.6863 89.5865 55.51 89.9928 55.51C90.3643 55.51 90.6274 55.6824 90.6274 55.9958V56.0115C90.6274 56.3602 90.2482 56.4699 89.2498 56.5444C88.0232 56.6345 87.0675 57.136 87.0675 58.4563C87.0675 59.6553 87.8646 60.2116 89.0022 60.2116ZM89.6987 58.8481C89.335 58.8481 89.0796 58.6679 89.0796 58.331C89.0796 58.0214 89.2963 57.7824 89.7916 57.7041C90.1321 57.6492 90.4184 57.5787 90.6429 57.4847V57.9862C90.6429 58.5347 90.1824 58.8481 89.6987 58.8481Z" fill="black"/>
<path d="M99.2167 56.0585C99.1625 54.7852 98.1177 54.0212 96.3997 54.0212C94.701 54.0212 93.6524 54.7264 93.6601 55.9802C93.6524 56.9283 94.2599 57.5356 95.471 57.7511L96.5235 57.9392C96.9878 58.0254 97.1968 58.1507 97.2045 58.378C97.1968 58.6287 96.9143 58.7698 96.5235 58.7698C96.0398 58.7698 95.6993 58.5582 95.6413 58.1742H93.5208C93.6369 59.4084 94.6894 60.2273 96.508 60.2273C98.1526 60.2273 99.3637 59.4163 99.3715 58.1272C99.3637 57.2378 98.7756 56.7207 97.5605 56.4973L96.3533 56.2779C95.9005 56.1957 95.7728 56.0311 95.7806 55.8548C95.7728 55.604 96.0785 55.463 96.4461 55.463C96.8679 55.463 97.22 55.6902 97.251 56.0585H99.2167Z" fill="black"/>
<path d="M102.326 56.7324C102.33 56.1369 102.67 55.7764 103.193 55.7764C103.738 55.7764 104.048 56.1369 104.044 56.7324V60.1176H106.18V56.2779C106.184 54.9615 105.363 54.0212 104.106 54.0212C103.227 54.0212 102.577 54.4756 102.31 55.2436H102.248V52.0935H100.19V60.1176H102.326V56.7324Z" fill="black"/>
<path d="M107.203 60.1176H109.324V59.1302H109.37C109.618 59.7415 110.191 60.1959 111.026 60.1959C112.296 60.1959 113.364 59.1929 113.364 57.1085C113.364 54.9301 112.218 54.0212 111.042 54.0212C110.16 54.0212 109.602 54.5383 109.37 55.1495H109.339V52.0935H107.203V60.1176ZM109.293 57.1085C109.293 56.2152 109.649 55.6824 110.237 55.6824C110.825 55.6824 111.166 56.2152 111.166 57.1085C111.166 58.0019 110.825 58.5347 110.237 58.5347C109.649 58.5347 109.293 57.9862 109.293 57.1085Z" fill="black"/>
<path d="M117.121 60.2273C119.056 60.2273 120.201 58.9735 120.201 57.1242C120.201 55.2749 119.056 54.0212 117.121 54.0212C115.186 54.0212 114.041 55.2749 114.041 57.1242C114.041 58.9735 115.186 60.2273 117.121 60.2273ZM117.136 58.6287C116.564 58.6287 116.223 58.0528 116.223 57.1085C116.223 56.1643 116.564 55.5884 117.136 55.5884C117.678 55.5884 118.019 56.1643 118.019 57.1085C118.019 58.0528 117.678 58.6287 117.136 58.6287Z" fill="black"/>
<path d="M122.724 60.2116C123.498 60.2116 124.082 59.9452 124.442 59.2713H124.488V60.1176H126.485V55.9958C126.485 54.8831 125.444 54.0212 123.745 54.0212C121.969 54.0212 121.095 54.9615 121.021 56.0585H122.987C123.037 55.6863 123.308 55.51 123.714 55.51C124.086 55.51 124.349 55.6824 124.349 55.9958V56.0115C124.349 56.3602 123.97 56.4699 122.971 56.5444C121.745 56.6345 120.789 57.136 120.789 58.4563C120.789 59.6553 121.586 60.2116 122.724 60.2116ZM123.42 58.8481C123.057 58.8481 122.801 58.6679 122.801 58.331C122.801 58.0214 123.018 57.7824 123.513 57.7041C123.854 57.6492 124.14 57.5787 124.364 57.4847V57.9862C124.364 58.5347 123.904 58.8481 123.42 58.8481Z" fill="black"/>
<path d="M127.506 60.1176H129.641V56.9832C129.641 56.2936 130.11 55.8391 130.74 55.8391C130.961 55.8391 131.317 55.8744 131.53 55.9488V54.1034C131.36 54.0525 131.174 54.0212 130.988 54.0212C130.353 54.0212 129.858 54.3973 129.641 55.2436H129.58V54.0995H127.506V60.1176Z" fill="black"/>
<path d="M134.041 60.1959C134.877 60.1959 135.45 59.7415 135.697 59.1302H135.744V60.1176H137.864V52.0935H135.728V55.1495H135.697C135.465 54.5383 134.908 54.0212 134.026 54.0212C132.849 54.0212 131.704 54.9301 131.704 57.1085C131.704 59.1929 132.772 60.1959 134.041 60.1959ZM134.83 58.5347C134.242 58.5347 133.902 58.0019 133.902 57.1085C133.902 56.2152 134.242 55.6824 134.83 55.6824C135.419 55.6824 135.775 56.2152 135.775 57.1085C135.775 57.9862 135.419 58.5347 134.83 58.5347Z" fill="black"/>
<path d="M51.8704 60.9087C58.2753 60.9087 63.4676 55.7164 63.4676 49.3115C63.4676 42.9065 58.2753 37.7142 51.8704 37.7142C45.4654 37.7142 40.2731 42.9065 40.2731 49.3115C40.2731 55.7164 45.4654 60.9087 51.8704 60.9087Z" fill="#FFD347"/>
<path d="M51.8706 33.3641C51.5284 33.3641 51.251 33.0868 51.251 32.7445V29.4313C51.251 29.089 51.5284 28.8117 51.8706 28.8117C52.2128 28.8117 52.4902 29.089 52.4902 29.4313V32.7446C52.4902 33.0868 52.2128 33.3641 51.8706 33.3641Z" fill="#FFD347"/>
<path d="M43.5875 35.5838C43.3734 35.5838 43.1652 35.4727 43.0505 35.2739L41.3939 32.4046C41.2228 32.1083 41.3243 31.7294 41.6207 31.5582C41.917 31.3873 42.2959 31.4886 42.467 31.785L44.1236 34.6544C44.2946 34.9507 44.1932 35.3296 43.8968 35.5007C43.7992 35.557 43.6927 35.5838 43.5875 35.5838Z" fill="#FFD347"/>
<path d="M37.5225 41.6477C37.4174 41.6477 37.3108 41.621 37.2133 41.5646L34.3439 39.9081C34.0476 39.737 33.9461 39.3581 34.1171 39.0617C34.2882 38.7653 34.6671 38.664 34.9635 38.8349L37.8328 40.4915C38.1291 40.6625 38.2307 41.0415 38.0596 41.3378C37.9448 41.5367 37.7366 41.6477 37.5225 41.6477Z" fill="#FFD347"/>
<path d="M35.3034 49.9313H31.9902C31.648 49.9313 31.3706 49.654 31.3706 49.3117C31.3706 48.9694 31.648 48.6921 31.9902 48.6921H35.3035C35.6457 48.6921 35.923 48.9694 35.923 49.3117C35.923 49.654 35.6456 49.9313 35.3034 49.9313Z" fill="#FFD347"/>
<path d="M34.6542 59.8715C34.4401 59.8715 34.2319 59.7605 34.1171 59.5617C33.9461 59.2654 34.0475 58.8865 34.3439 58.7154L37.2133 57.0588C37.5096 56.8879 37.8885 56.9891 38.0596 57.2856C38.2307 57.5819 38.1292 57.9608 37.8328 58.1319L34.9635 59.7885C34.8659 59.8448 34.7593 59.8715 34.6542 59.8715Z" fill="#FFD347"/>
<path d="M41.9299 67.1483C41.8248 67.1483 41.7182 67.1216 41.6207 67.0652C41.3244 66.8941 41.2229 66.5152 41.3939 66.2188L43.0505 63.3495C43.2215 63.0531 43.6005 62.9517 43.8968 63.1227C44.1931 63.2938 44.2947 63.6727 44.1236 63.9691L42.467 66.8384C42.3522 67.0372 42.144 67.1483 41.9299 67.1483Z" fill="#FFD347"/>
<path d="M51.8706 69.8117C51.5284 69.8117 51.251 69.5344 51.251 69.1921V65.8788C51.251 65.5366 51.5284 65.2593 51.8706 65.2593C52.2128 65.2593 52.4902 65.5366 52.4902 65.8788V69.1921C52.4902 69.5344 52.2128 69.8117 51.8706 69.8117Z" fill="#FFD347"/>
<path d="M61.8113 67.1483C61.5972 67.1483 61.389 67.0372 61.2743 66.8385L59.6177 63.9691C59.4466 63.6728 59.5481 63.2939 59.8445 63.1228C60.1407 62.9519 60.5197 63.0531 60.6908 63.3496L62.3474 66.2189C62.5184 66.5152 62.417 66.8941 62.1206 67.0653C62.023 67.1216 61.9165 67.1483 61.8113 67.1483Z" fill="#FFD347"/>
<path d="M69.087 59.8715C68.9819 59.8715 68.8754 59.8448 68.7778 59.7884L65.9085 58.1318C65.6122 57.9608 65.5106 57.5819 65.6817 57.2855C65.8527 56.9891 66.2317 56.8877 66.528 57.0587L69.3974 58.7153C69.6937 58.8863 69.7952 59.2653 69.6242 59.5616C69.5093 59.7604 69.3011 59.8715 69.087 59.8715Z" fill="#FFD347"/>
<path d="M71.751 49.9313H68.4377C68.0955 49.9313 67.8181 49.654 67.8181 49.3117C67.8181 48.9694 68.0955 48.6921 68.4377 48.6921H71.751C72.0932 48.6921 72.3706 48.9694 72.3706 49.3117C72.3706 49.654 72.0932 49.9313 71.751 49.9313Z" fill="#FFD347"/>
<path d="M66.2188 41.6477C66.0046 41.6477 65.7964 41.5367 65.6817 41.3379C65.5106 41.0416 65.6121 40.6627 65.9085 40.4916L68.7778 38.835C69.0741 38.6641 69.453 38.7653 69.6242 39.0618C69.7952 39.3581 69.6937 39.737 69.3974 39.9081L66.528 41.5647C66.4304 41.621 66.3238 41.6477 66.2188 41.6477Z" fill="#FFD347"/>
<path d="M60.1537 35.5838C60.0486 35.5838 59.942 35.557 59.8445 35.5006C59.5482 35.3296 59.4466 34.9507 59.6177 34.6543L61.2743 31.7849C61.4453 31.4886 61.8242 31.3872 62.1206 31.5581C62.4169 31.7292 62.5184 32.1081 62.3474 32.4045L60.6908 35.2738C60.576 35.4727 60.3677 35.5838 60.1537 35.5838Z" fill="#FFD347"/>
<path d="M51.8706 37.7148C51.4508 37.7148 51.0364 37.7377 50.6281 37.7811C56.4486 38.4011 60.9825 43.3267 60.9825 49.3116C60.9825 55.2966 56.4485 60.2222 50.6281 60.8422C51.0364 60.8858 51.4508 60.9085 51.8706 60.9085C58.2754 60.9085 63.4675 55.7164 63.4675 49.3116C63.4675 42.9068 58.2755 37.7148 51.8706 37.7148Z" fill="#FFBE31"/>
</g>
</svg>
