<svg width="94" height="95" viewBox="0 0 94 95" fill="none" xmlns="http://www.w3.org/2000/svg">
<path d="M43.9614 23.499V26.1646L48.0515 27.9824L52.1416 26.1646L53.9594 20.7417L52.1416 15.3188C47.6312 15.3188 43.9614 18.9883 43.9614 23.499Z" fill="#FF8066"/>
<path d="M60.3218 23.499C60.3218 18.9886 56.6523 15.3188 52.1416 15.3188V26.1646L56.2317 27.9824L60.3218 26.1646C60.3218 25.2323 60.3218 24.4314 60.3218 23.499Z" fill="#FF4D4D"/>
<path d="M0.333984 61.612V86.1525H46.6882L48.506 73.7303L46.6882 61.612L26.2378 59.7942L0.333984 61.612Z" fill="#ECE6F2"/>
<path d="M52.1417 86.1525C50.2344 86.1525 48.5955 86.1525 46.6882 86.1525C46.6882 83.1834 46.6882 64.6007 46.6882 61.612L49.4149 59.7942L52.1417 61.612L53.9595 73.8822L52.1417 86.1525Z" fill="#6AA9FF"/>
<path d="M93.0424 61.612L72.592 59.7942L52.1416 61.612V86.1525H93.0424C93.0424 83.1834 93.0424 64.6007 93.0424 61.612Z" fill="#CFCFE6"/>
<path d="M46.6882 26.1647C45.3743 26.1647 1.59518 26.1647 0.333984 26.1647V61.612H52.1416L53.9594 56.1586L52.1416 50.7051L46.6882 26.1647Z" fill="#FFF5F5"/>
<path d="M62.2499 14.459C60.9015 13.1105 59.7423 11.9513 58.3938 10.6028C60.3023 8.69433 61.9387 7.05793 63.8472 5.14941C65.1959 6.49805 66.3547 7.6569 67.7034 9.00554C65.7948 10.9141 64.1584 12.5505 62.2499 14.459Z" fill="#FF4D4D"/>
<path d="M42.0335 14.459C40.125 12.5505 38.4884 10.9141 36.5801 9.00554C37.9285 7.6569 39.0876 6.49805 40.4362 5.14941C42.3447 7.05793 43.9811 8.69433 45.8896 10.6028C44.541 11.9515 43.3818 13.1105 42.0335 14.459Z" fill="#FF8066"/>
<path d="M30.3281 42.525C28.4208 42.525 26.7819 42.525 24.8746 42.525C24.8746 40.6177 24.8746 38.9788 24.8746 37.0715C22.9674 37.0715 21.3285 37.0715 19.4212 37.0715V42.525C17.514 42.525 15.875 42.525 13.9678 42.525V47.9784H19.4212V53.4318H24.8746C24.8746 51.5246 24.8746 49.8856 24.8746 47.9784H30.3281C30.3281 46.0712 30.3281 44.4322 30.3281 42.525Z" fill="#FF8066"/>
<path d="M49.4148 1.62427V9.80442H52.1415L53.9593 5.71434L52.1415 1.62427C51.1879 1.62427 50.3684 1.62427 49.4148 1.62427Z" fill="#FF8066"/>
<path d="M53.5051 11.4286C54.5833 11.4286 55.4574 8.8702 55.4574 5.71429C55.4574 2.55838 54.5833 0 53.5051 0C52.4268 0 51.5527 2.55838 51.5527 5.71429C51.5527 8.8702 52.4268 11.4286 53.5051 11.4286Z" fill="#FF4D4D"/>
<path d="M81.3807 50.7051L66.8146 48.8873L52.1416 50.7051V61.612H93.0424C93.0424 61.5838 93.0424 60.2896 93.0424 60.3341C93.0424 60.3341 81.3995 50.7206 81.3807 50.7051Z" fill="#ECE6F2"/>
<path d="M71.9833 45.2517L69.0168 37.6774L64.1927 31.6181L57.7995 30.4592L52.1415 31.6181L50.3237 39.3438L52.1415 45.2517L63.9475 47.0695L71.9833 45.2517Z" fill="#FFF5F5"/>
<path d="M22.1476 94.3327C28.1713 94.3327 33.0545 89.4495 33.0545 83.4258C33.0545 77.4021 28.1713 72.5189 22.1476 72.5189C16.1239 72.5189 11.2407 77.4021 11.2407 83.4258C11.2407 89.4495 16.1239 94.3327 22.1476 94.3327Z" fill="#01223C"/>
<path d="M71.2286 94.3327C77.2523 94.3327 82.1355 89.4495 82.1355 83.4258C82.1355 77.4021 77.2523 72.5189 71.2286 72.5189C65.2049 72.5189 60.3218 77.4021 60.3218 83.4258C60.3218 89.4495 65.2049 94.3327 71.2286 94.3327Z" fill="#01223C"/>
<path d="M22.1478 88.8792C25.1596 88.8792 27.6012 86.4376 27.6012 83.4257C27.6012 80.4139 25.1596 77.9723 22.1478 77.9723C19.1359 77.9723 16.6943 80.4139 16.6943 83.4257C16.6943 86.4376 19.1359 88.8792 22.1478 88.8792Z" fill="#004C9C"/>
<path d="M71.2286 88.8792C74.2404 88.8792 76.682 86.4376 76.682 83.4257C76.682 80.4139 74.2404 77.9723 71.2286 77.9723C68.2167 77.9723 65.7751 80.4139 65.7751 83.4257C65.7751 86.4376 68.2167 88.8792 71.2286 88.8792Z" fill="#004C9C"/>
<path d="M46.6882 50.7051H52.1417L53.9595 48.1602L52.1417 45.2517V31.6181L53.9595 28.8914L52.1417 26.1647H46.6882V50.7051Z" fill="#6AA9FF"/>
<path d="M64.1928 31.6181L71.9834 45.2517H52.1416V50.7051H81.3807L67.3576 26.1647H52.1416V31.6181H64.1928Z" fill="#4895FF"/>
</svg>
