<svg width="93" height="93" viewBox="0 0 93 93" fill="none" xmlns="http://www.w3.org/2000/svg">
<path d="M83.2255 35.9978L30.8772 45.4924L5.54224 50.0799L8.97884 12.581C9.10254 11.1336 10.1736 9.94506 11.6002 9.67184L55.1572 1.59981L63.469 0.0493463C64.8922 -0.20308 66.3078 0.530912 66.9216 1.83958L68.3602 4.86059L69.7827 7.84964L75.3133 19.4382L76.7519 22.4272L83.2255 35.9978Z" fill="#67B9CC"/>
<path d="M83.2252 35.9978L30.877 45.4924C32.2447 28.0396 41.0991 12.0329 55.157 1.59981L63.4687 0.0493463C64.892 -0.20308 66.3075 0.530912 66.9213 1.83958L68.3599 4.86059L69.7825 7.84964L75.313 19.4382L76.7516 22.4272L83.2252 35.9978Z" fill="#2FA8CC"/>
<path d="M69.7827 7.84964L59.0893 16.7848C58.4583 17.3097 57.7051 17.6671 56.8995 17.8238L49.8504 19.1345C49.7498 19.1478 49.6482 19.1531 49.5467 19.1505C48.7313 19.1356 48.0578 18.5093 47.9839 17.697C47.9101 16.8848 48.4596 16.1472 49.259 15.9856L56.324 14.6749C56.5886 14.6265 56.8363 14.511 57.0433 14.3392L68.3601 4.8606L69.7827 7.84964Z" fill="#3B97D3"/>
<path d="M76.7521 22.4273L64.5082 24.697C64.3019 24.7364 64.1059 24.818 63.9327 24.9368L54.3102 31.4264C54.048 31.6092 53.7347 31.7043 53.4151 31.6981C52.7112 31.6997 52.0891 31.2406 51.8831 30.5674C51.6771 29.8943 51.9357 29.1656 52.52 28.773L62.1425 22.2834C62.6813 21.9159 63.2912 21.6655 63.9327 21.5481L75.3135 19.4382L76.7521 22.4273Z" fill="#3B97D3"/>
<path d="M40.0409 22.9515L35.5206 20.9615C34.5478 20.5307 33.4237 20.6172 32.5283 21.1917L27.9632 24.1104L26.8795 17.9533L30.3033 16.0352C31.0731 15.6022 31.3461 14.6271 30.9131 13.8573C30.4801 13.0875 29.505 12.8145 28.7353 13.2475L25.313 15.1656C24.11 15.8416 23.4682 17.2062 23.7146 18.5639L24.6609 23.8706L21.1252 22.0596C20.1815 21.5787 19.06 21.6009 18.1361 22.1188L14.4358 24.1887C13.9373 24.4674 13.6253 24.9909 13.6173 25.562C13.6094 26.133 13.9068 26.665 14.3974 26.9574C14.888 27.2498 15.4973 27.2582 15.9959 26.9796L19.6722 24.9016L23.4109 26.8069L17.7381 29.991C16.9933 30.4047 16.4443 31.0986 16.2132 31.9187L14.3958 38.2708C14.2785 38.6788 14.3284 39.1168 14.5344 39.488C14.7404 39.8593 15.0856 40.1333 15.494 40.2496C15.6371 40.2894 15.7849 40.3098 15.9335 40.3104C16.6467 40.3101 17.2735 39.8373 17.4696 39.1515L19.3046 32.7818L26.0643 29.0016L27.8226 32.9497C28.1458 33.681 28.7299 34.2657 29.4609 34.5896L34.1875 36.6676C34.7122 36.9108 35.3274 36.8516 35.7961 36.5127C36.2648 36.1739 36.5139 35.6083 36.4475 35.0338C36.381 34.4593 36.0095 33.9654 35.4758 33.7425L30.7301 31.6501L28.8232 27.352L34.229 23.8818L38.751 25.8735C39.2735 26.1039 39.8792 26.038 40.3401 25.7007C40.8009 25.3634 41.0467 24.8059 40.985 24.2382C40.9233 23.6704 40.5634 23.1788 40.0409 22.9483V22.9515Z" fill="#3B97D3"/>
<path d="M0.337717 54.7137L4.41688 77.2658C4.55135 78.0924 5.00908 78.8316 5.68914 79.3204C6.36921 79.8092 7.21575 80.0073 8.0421 79.8713L90.4582 64.795C92.169 64.4489 93.2776 62.7842 92.9374 61.0722L88.8582 38.5233C88.5984 36.9528 87.2191 35.8151 85.6278 35.8588C57.3398 37.1989 29.358 42.3166 2.42685 51.0757C0.9209 51.598 0.0297606 53.1498 0.337717 54.7137Z" fill="#E64C3C"/>
<path d="M87.6371 65.3129L89.3155 74.4542C89.6259 76.1883 88.4751 77.8466 86.742 78.1626L77.2954 79.8729C75.5572 80.1866 73.8923 79.0362 73.571 77.2994L71.9087 68.1884L78.6061 65.5366L87.6371 65.3129Z" fill="#2C3E50"/>
<path d="M90.4502 64.8013L8.03563 79.8744C7.21095 80.009 6.36662 79.8099 5.68891 79.3211C5.0112 78.8324 4.55581 78.094 4.42321 77.269L3.56006 72.5217L7.47619 71.8024L13.774 70.6516L92.0806 56.3297L92.9437 61.077C93.2677 62.7908 92.1581 64.448 90.4502 64.8013Z" fill="#35495E"/>
<path d="M13.8667 63.8359C16.0754 63.8359 17.8659 62.0525 17.8659 59.8526C17.8659 57.6528 16.0754 55.8694 13.8667 55.8694C11.658 55.8694 9.86743 57.6528 9.86743 59.8526C9.86743 62.0525 11.658 63.8359 13.8667 63.8359Z" fill="#F0C419"/>
<path d="M77.855 51.9309C80.0637 51.9309 81.8542 50.1475 81.8542 47.9476C81.8542 45.7477 80.0637 43.9644 77.855 43.9644C75.6462 43.9644 73.8557 45.7477 73.8557 47.9476C73.8557 50.1475 75.6462 51.9309 77.855 51.9309Z" fill="#F0C419"/>
<path d="M64.3465 54.2166L29.7216 60.492C27.9883 60.8109 26.3238 59.667 26.0004 57.9345L25.4282 54.7984C25.277 53.9653 25.4635 53.1062 25.9466 52.4107C26.4297 51.7153 27.1697 51.2407 28.0033 51.0917L62.6218 44.8099C64.3572 44.4922 66.0218 45.6404 66.3414 47.3753L66.9216 50.5114C67.23 52.2449 66.0787 53.9014 64.3465 54.2166Z" fill="#35495E"/>
<path d="M38.2009 64.0197C37.429 64.0191 36.7679 63.4669 36.6297 62.7074L33.6902 46.6433C33.5313 45.7746 34.1067 44.9416 34.9753 44.7827C35.844 44.6238 36.677 45.1992 36.8359 46.0679L39.769 62.1336C39.9275 62.9997 39.3557 63.8308 38.4903 63.9925C38.3949 64.011 38.298 64.0201 38.2009 64.0197Z" fill="#3F5C6C"/>
<path d="M56.8546 59.3188C56.0832 59.3182 55.4222 58.7669 55.2833 58.0081L52.638 43.5232C52.479 42.6545 53.0544 41.8215 53.9231 41.6626C54.7917 41.5037 55.6247 42.0791 55.7836 42.9477L58.429 57.4342C58.5875 58.3003 58.0158 59.1315 57.1503 59.2932C57.0527 59.3107 56.9537 59.3193 56.8546 59.3188Z" fill="#3F5C6C"/>
<path d="M47.6701 62.4421C46.8987 62.4416 46.2377 61.8902 46.0989 61.1314L43.1706 45.0993C43.0292 44.2393 43.6028 43.4246 44.4601 43.2677C45.3173 43.1108 46.1423 43.6696 46.3147 44.5238L49.243 60.5576C49.4015 61.4237 48.8297 62.2548 47.9642 62.4166C47.8673 62.4349 47.7688 62.4435 47.6701 62.4421Z" fill="#3F5C6C"/>
<path d="M89.795 79.9225H3.48029C1.71472 79.9225 0.283447 81.3538 0.283447 83.1193V89.513C0.283447 91.2786 1.71472 92.7098 3.48029 92.7098H89.795C91.5605 92.7098 92.9918 91.2786 92.9918 89.513V83.1193C92.9918 81.3538 91.5605 79.9225 89.795 79.9225Z" fill="#547580"/>
</svg>
